<svg id="visual" viewBox="0 0 960 540" width="960" height="540" xmlns="http://www.w3.org/2000/svg" xmlns:xlink="http://www.w3.org/1999/xlink" version="1.1"><rect x="0" y="0" width="960" height="540" fill="#ffffff"></rect><defs><linearGradient id="grad1_0" x1="43.8%" y1="0%" x2="100%" y2="100%"><stop offset="14.444444444444446%" stop-color="#3c98fa" stop-opacity="1"></stop><stop offset="85.55555555555554%" stop-color="#3c98fa" stop-opacity="1"></stop></linearGradient></defs><defs><linearGradient id="grad1_1" x1="43.8%" y1="0%" x2="100%" y2="100%"><stop offset="14.444444444444446%" stop-color="#3c98fa" stop-opacity="1"></stop><stop offset="85.55555555555554%" stop-color="#ffffff" stop-opacity="1"></stop></linearGradient></defs><defs><linearGradient id="grad2_0" x1="0%" y1="0%" x2="56.3%" y2="100%"><stop offset="14.444444444444446%" stop-color="#3c98fa" stop-opacity="1"></stop><stop offset="85.55555555555554%" stop-color="#3c98fa" stop-opacity="1"></stop></linearGradient></defs><defs><linearGradient id="grad2_1" x1="0%" y1="0%" x2="56.3%" y2="100%"><stop offset="14.444444444444446%" stop-color="#ffffff" stop-opacity="1"></stop><stop offset="85.55555555555554%" stop-color="#3c98fa" stop-opacity="1"></stop></linearGradient></defs><g transform="translate(960, 0)"><path d="M0 324C-60.3 317.6 -120.7 311.3 -162 280.6C-203.3 249.9 -225.6 194.8 -249.4 144C-273.2 93.2 -298.6 46.6 -324 0L0 0Z" fill="#b0cafe"></path><path d="M0 162C-30.2 158.8 -60.3 155.6 -81 140.3C-101.7 124.9 -112.8 97.4 -124.7 72C-136.6 46.6 -149.3 23.3 -162 0L0 0Z" fill="#3c98fa"></path></g><g transform="translate(0, 540)"><path d="M0 -324C57 -315.7 114 -307.4 162 -280.6C210 -253.8 249 -208.4 274.5 -158.5C300 -108.6 312 -54.3 324 0L0 0Z" fill="#b0cafe"></path><path d="M0 -162C28.5 -157.9 57 -153.7 81 -140.3C105 -126.9 124.5 -104.2 137.3 -79.3C150 -54.3 156 -27.2 162 0L0 0Z" fill="#3c98fa"></path></g></svg>